<?xml version="1.0" standalone="no"?>
<!DOCTYPE svg PUBLIC "-//W3C//DTD SVG 20010904//EN"
 "http://www.w3.org/TR/2001/REC-SVG-20010904/DTD/svg10.dtd">
<svg version="1.0" xmlns="http://www.w3.org/2000/svg"
 width="512.000000pt" height="512.000000pt" viewBox="0 0 512.000000 512.000000"
 preserveAspectRatio="xMidYMid meet">
<metadata>
Created by potrace 1.14, written by Peter Selinger 2001-2017
</metadata>
<g transform="translate(0.000000,512.000000) scale(0.100000,-0.100000)"
fill="#000000" stroke="none">
<path d="M2415 4718 c-130 -37 -409 -130 -522 -174 -62 -24 -118 -44 -124 -44
-6 0 -37 -11 -68 -24 -31 -14 -92 -38 -136 -55 -44 -16 -130 -52 -190 -79 -61
-27 -151 -64 -200 -82 -50 -18 -157 -63 -240 -100 -82 -37 -165 -74 -184 -81
-37 -14 -85 -59 -106 -99 -19 -37 -92 -261 -100 -306 -4 -21 -15 -70 -25 -109
-10 -38 -26 -135 -35 -215 -9 -80 -20 -167 -25 -195 -5 -27 -21 -111 -35 -185
-14 -74 -25 -169 -25 -210 1 -41 -4 -111 -10 -155 -6 -44 -13 -102 -14 -130
-2 -27 -9 -101 -16 -162 -7 -62 -10 -155 -8 -205 4 -78 9 -101 32 -140 15 -27
31 -48 35 -48 4 0 15 -15 26 -33 37 -64 92 -121 180 -188 50 -37 101 -77 115
-88 l25 -20 -22 -16 c-18 -13 -21 -22 -16 -48 3 -18 13 -44 22 -59 17 -29 139
-128 156 -128 6 0 31 -17 56 -37 110 -91 249 -182 278 -183 8 0 44 -20 80 -44
36 -24 95 -60 131 -82 36 -21 109 -66 162 -101 54 -35 121 -72 149 -82 27 -11
66 -31 85 -46 79 -61 199 -91 290 -74 73 14 78 15 223 59 74 22 178 49 230 61
53 11 103 22 111 24 123 30 460 99 535 109 28 4 129 23 225 43 96 19 211 42
255 49 44 8 91 19 105 24 14 5 61 17 105 26 43 8 96 24 117 35 20 10 46 19 57
19 11 0 23 5 26 10 4 6 24 19 46 31 58 29 96 66 133 129 57 97 127 200 135
200 4 0 15 15 24 34 9 19 27 47 41 63 56 62 314 420 341 473 11 22 18 59 19
105 1 68 0 72 -47 141 -102 151 -338 348 -563 469 -99 54 -124 71 -124 89 0
29 27 229 40 296 19 100 9 302 -19 358 -30 62 -51 93 -114 174 -108 138 -164
194 -241 245 -39 26 -93 65 -121 87 -50 41 -140 109 -182 137 -11 8 -49 35
-82 62 -34 26 -64 47 -67 47 -3 0 -22 13 -42 29 -20 16 -80 52 -132 79 -162
85 -212 113 -244 137 -17 13 -78 46 -136 74 -58 29 -139 70 -180 91 -84 45
-97 46 -195 18z m162 -60 c51 -47 138 -137 159 -165 11 -15 13 -15 14 -3 0 9
-21 40 -46 70 l-47 55 58 -57 c31 -32 59 -58 62 -58 2 0 -10 18 -27 40 l-32
40 69 -33 c37 -18 95 -49 128 -69 33 -20 94 -53 135 -72 41 -20 66 -33 55 -30
-42 14 -67 16 -74 8 -3 -5 -15 -14 -26 -20 -11 -7 -19 -20 -18 -29 1 -11 -21
6 -55 43 -32 33 -71 67 -89 76 -36 18 -93 12 -93 -10 0 -28 -17 -12 -85 78
-39 50 -85 108 -103 127 -59 63 -25 4 60 -104 46 -58 102 -131 125 -163 23
-31 71 -82 106 -112 36 -30 93 -88 128 -127 34 -40 68 -73 76 -73 28 0 74 34
67 50 -3 8 -7 24 -10 34 -2 11 -15 36 -28 57 -21 31 -23 38 -10 43 30 12 55 6
79 -19 20 -19 25 -34 25 -78 0 -29 -5 -58 -10 -63 -18 -18 -1 -38 58 -67 83
-40 148 -57 223 -57 71 0 97 14 84 47 -4 13 2 10 22 -8 42 -39 201 -157 234
-175 16 -8 33 -13 37 -10 4 3 14 0 22 -5 37 -26 -114 2 -225 41 -87 31 -151
46 -235 56 -190 23 -362 58 -410 84 -11 6 -55 14 -97 19 -43 5 -88 12 -101 16
-21 7 -23 5 -19 -30 3 -25 20 -59 53 -104 48 -65 139 -222 190 -326 28 -57 79
-125 94 -125 5 0 -3 19 -19 43 -15 23 -58 100 -95 171 -37 71 -94 168 -127
215 -61 88 -69 104 -45 95 8 -3 41 -51 72 -107 31 -56 78 -131 103 -167 26
-36 65 -97 89 -137 23 -40 47 -75 53 -79 14 -8 13 -7 -30 76 -18 36 -57 99
-86 140 -28 41 -69 107 -90 145 -21 39 -45 80 -53 93 -8 12 -10 22 -4 22 10 0
47 -58 169 -265 74 -125 103 -168 110 -162 7 8 -77 168 -153 290 -41 64 -74
119 -74 122 0 3 7 5 15 5 9 0 21 -12 27 -27 7 -16 28 -53 48 -83 20 -30 72
-113 114 -185 43 -71 84 -135 92 -141 9 -7 11 -22 8 -46 -15 -90 153 -458 236
-520 17 -12 30 -29 30 -37 0 -9 14 -45 31 -81 17 -36 47 -108 66 -160 36 -101
45 -116 61 -106 7 4 2 27 -14 61 -13 31 -24 60 -24 65 0 6 -18 52 -40 104 -38
89 -48 139 -32 161 16 22 31 12 46 -32 22 -65 19 -76 -6 -23 -15 32 -22 40
-25 27 -6 -23 16 -93 63 -204 39 -93 62 -121 50 -62 l-6 32 21 -27 c31 -40 40
-22 15 32 -13 26 -42 106 -65 177 -24 72 -50 153 -60 180 -9 28 -22 50 -30 50
-12 0 -94 135 -86 143 8 9 130 -129 134 -150 16 -107 161 -391 186 -366 3 3
-10 38 -29 79 -51 112 -71 159 -91 214 -10 28 -22 54 -27 60 -16 18 -8 24 20
15 62 -23 71 -33 93 -97 11 -35 19 -67 16 -69 -3 -3 -13 17 -22 45 -18 55 -31
69 -48 52 -8 -8 -7 -17 1 -33 6 -13 29 -61 50 -108 58 -126 110 -180 62 -63
-13 31 -15 41 -5 29 24 -31 28 -11 10 46 -10 29 -20 60 -23 68 -2 8 8 -4 24
-28 40 -60 44 -26 6 58 -36 80 -46 124 -34 146 8 15 11 12 17 -15 8 -39 64
-168 86 -202 30 -44 30 -13 -1 61 -37 90 -73 210 -66 218 8 7 6 10 55 -106 42
-100 61 -130 61 -97 0 17 -48 148 -85 230 -12 28 -25 67 -29 88 -4 21 -24 64
-44 97 -87 137 -212 370 -199 370 2 0 35 -53 72 -117 38 -64 71 -111 73 -105
2 6 -8 30 -21 54 -60 105 -97 181 -91 187 10 10 62 -59 104 -139 46 -87 100
-170 100 -153 0 6 -31 69 -69 140 -38 70 -66 130 -64 133 11 11 71 -74 118
-166 27 -55 62 -120 77 -146 20 -35 24 -48 13 -48 -11 0 -12 -7 -4 -32 14 -50
4 -44 -19 12 -21 51 -44 68 -36 28 3 -13 -6 1 -20 30 -22 47 -46 69 -46 42 0
-17 67 -172 130 -300 50 -100 61 -117 56 -85 -3 22 -19 67 -36 99 -34 67 -35
87 -1 26 25 -45 35 -51 27 -17 -3 12 3 3 15 -20 22 -47 45 -60 28 -17 -14 37
-4 41 11 5 16 -39 40 -61 40 -37 0 9 -7 31 -16 47 -8 17 -13 33 -10 37 3 3 6
1 6 -4 0 -5 10 -20 21 -34 l21 -25 -5 25 c-2 14 -8 34 -12 45 -5 16 -3 15 13
-5 30 -36 38 -18 14 32 -11 24 -23 54 -27 68 -5 22 -4 21 15 -7 12 -18 28 -33
36 -33 16 0 19 16 5 25 -5 3 -19 34 -31 70 -12 36 -25 65 -30 65 -16 0 -19
-17 -10 -50 15 -53 4 -46 -14 9 -9 28 -32 77 -51 110 -19 33 -35 62 -35 65 0
4 -18 42 -39 85 -22 44 -37 82 -33 85 3 4 28 -40 56 -97 49 -100 96 -172 96
-148 0 6 -11 29 -25 51 -14 22 -25 42 -25 45 0 4 -11 31 -25 62 -14 30 -23 58
-20 61 3 3 6 3 8 1 1 -2 13 -24 26 -49 39 -73 92 -153 97 -147 3 3 -6 27 -21
54 l-26 48 32 -38 c33 -37 39 -64 39 -153 0 -17 9 -42 19 -55 17 -20 20 -21
21 -6 0 9 5 17 11 17 8 0 9 -35 4 -117 l-7 -118 -67 -90 c-42 -56 -110 -173
-181 -310 -126 -246 -127 -248 -187 -327 -24 -31 -43 -61 -43 -67 0 -15 23
-14 38 1 9 9 12 -5 12 -63 0 -89 18 -238 32 -259 9 -15 8 2 -11 255 -4 50 -4
94 0 99 8 9 11 -14 29 -229 12 -147 20 -191 29 -177 4 6 1 84 -6 174 -8 90
-12 195 -10 233 3 68 3 68 5 -17 1 -48 7 -90 12 -93 6 -3 10 -16 10 -28 0 -12
7 -41 15 -64 11 -32 12 -49 4 -72 -8 -22 -7 -44 1 -78 7 -26 18 -124 24 -217
9 -114 17 -171 26 -176 9 -5 10 -17 5 -36 -8 -27 -9 -26 -21 26 -13 54 -29
161 -40 272 -3 32 -10 58 -16 58 -8 0 -9 -41 -5 -132 l5 -133 -13 85 c-7 47
-14 108 -14 137 -1 55 -15 78 -25 40 -6 -25 19 -243 37 -327 10 -41 17 -55 30
-54 13 1 17 -6 17 -30 0 -17 5 -47 10 -66 7 -25 7 -43 -2 -64 l-12 -30 -13 50
c-8 27 -20 83 -28 124 -14 70 -78 360 -91 405 -4 16 -3 17 5 5 7 -10 9 34 5
145 -6 180 -10 209 -26 199 -11 -7 -6 -216 8 -295 4 -26 3 -30 -5 -18 -6 9
-14 80 -17 157 -7 134 -8 141 -31 153 -36 19 -54 -3 -26 -33 22 -25 41 -138
23 -138 -5 0 -10 -7 -10 -17 0 -15 -2 -15 -19 1 -18 16 -21 16 -50 1 -32 -16
-41 -34 -18 -36 7 0 7 -3 -3 -6 -21 -9 -49 -45 -50 -65 0 -10 -7 -18 -15 -18
-8 0 -15 -6 -15 -14 0 -15 -18 -31 -25 -24 -3 2 2 32 11 66 15 60 15 63 -6 97
-12 19 -28 35 -36 35 -19 0 -18 -5 11 -47 17 -26 21 -41 15 -53 -5 -9 -19 -45
-31 -81 -28 -82 -93 -163 -284 -353 -27 -28 -77 -82 -110 -121 -119 -141 -260
-292 -364 -389 -58 -54 -172 -163 -252 -241 -225 -221 -273 -235 -456 -137
-57 31 -260 174 -438 309 -212 160 -272 209 -377 301 -58 52 -116 101 -129
110 -13 9 -61 49 -106 89 -46 40 -96 81 -112 91 -74 45 -192 153 -248 225 -88
116 -84 96 -78 380 5 259 10 328 28 362 5 10 9 48 9 83 -1 36 5 80 13 99 8 20
17 54 20 77 10 85 24 183 34 231 6 28 12 82 14 120 4 73 40 262 58 305 6 13
13 43 15 65 12 112 65 280 110 350 36 56 56 70 168 115 44 17 112 47 153 66
40 18 80 34 88 34 9 0 43 12 78 26 34 14 95 36 135 49 68 23 76 23 102 10 16
-8 37 -15 47 -15 26 0 140 56 176 86 16 14 47 34 69 45 23 12 38 26 35 33 -3
8 29 27 97 54 57 23 106 42 111 42 4 0 21 7 38 15 18 8 64 23 102 33 39 11 97
30 130 42 33 12 89 30 125 40 36 10 81 26 100 34 53 23 66 20 117 -26z m578
-306 c-3 -3 -11 0 -18 7 -9 10 -8 11 6 5 10 -3 15 -9 12 -12z m161 -91 c69
-46 112 -80 101 -81 -8 0 -177 110 -177 116 0 11 22 1 76 -35z m149 -176 c48
-45 47 -50 -5 -14 -14 9 -44 23 -68 30 -30 9 -41 17 -37 27 3 7 5 18 5 23 0
16 52 -17 105 -66z m-412 -233 c80 -140 109 -192 103 -192 -3 0 -31 43 -63 96
-32 53 -68 112 -80 132 -13 21 -23 41 -23 45 0 19 21 -8 63 -81z m44 56 c16
-21 60 -107 108 -212 25 -55 48 -96 51 -93 8 8 -59 178 -98 245 -20 35 -25 52
-16 52 13 0 28 -27 146 -253 31 -59 58 -103 60 -98 4 13 -39 111 -97 221 -28
52 -51 98 -51 102 0 4 8 8 18 8 14 0 36 -35 84 -132 65 -132 138 -254 138
-230 0 6 -22 51 -50 99 -27 47 -55 102 -61 122 -7 19 -25 59 -42 89 -18 34
-24 53 -16 50 13 -4 62 -90 163 -283 33 -64 46 -80 64 -80 15 0 46 -26 97 -84
42 -46 74 -89 72 -95 -9 -26 -29 -12 -68 48 -39 61 -67 87 -53 51 11 -28 -5
-15 -22 18 -10 17 -19 27 -21 20 -6 -16 26 -63 42 -63 13 0 51 -38 44 -45 -3
-2 -35 22 -72 54 -37 32 -96 73 -129 91 -58 31 -65 33 -112 23 -54 -11 -68 -4
-80 40 -4 18 -4 18 15 1 10 -9 19 -15 19 -13 0 11 -143 295 -160 319 -11 16
-20 31 -20 34 0 11 38 6 47 -6z m261 -90 c96 -172 115 -205 134 -225 20 -21
18 -43 -5 -43 -9 1 -148 262 -165 310 -10 27 10 4 36 -42z m46 36 c9 -3 38
-50 65 -103 26 -53 55 -107 62 -119 9 -14 10 -25 4 -31 -16 -16 -30 0 -68 79
-20 41 -50 99 -67 128 -30 50 -30 59 4 46z m94 -72 c35 -73 96 -151 108 -139
4 4 -2 17 -13 30 -23 24 -73 116 -73 132 0 5 13 -12 28 -40 15 -27 42 -71 60
-97 18 -26 32 -48 32 -50 0 -3 -18 -2 -41 1 -36 5 -43 11 -68 56 -38 69 -82
175 -73 175 4 0 22 -31 40 -68z m70 23 c-3 -3 -9 2 -12 12 -6 14 -5 15 5 6 7
-7 10 -15 7 -18z m290 -219 c51 -101 101 -208 111 -238 11 -29 22 -62 26 -73
5 -13 5 -17 -2 -10 -6 6 -23 44 -38 85 -16 41 -36 84 -46 95 -16 19 -119 229
-119 243 0 4 -11 24 -25 44 -28 42 -31 49 -12 42 7 -2 54 -87 105 -188z m42
19 c40 -71 75 -146 77 -165 3 -31 2 -33 -8 -15 -7 11 -18 25 -25 30 -7 6 -23
37 -35 70 -23 65 -50 127 -81 190 -38 75 -2 20 72 -110z m209 -145 c0 -10 -3
-8 -9 5 -12 27 -12 43 0 25 5 -8 9 -22 9 -30z m-235 -136 c3 -8 2 -12 -4 -9
-6 3 -10 10 -10 16 0 14 7 11 14 -7z m198 -316 c-7 -7 -12 -8 -12 -2 0 6 3 14
7 17 3 4 9 5 12 2 2 -3 -1 -11 -7 -17z m-32 -140 c-7 -54 -15 -96 -18 -93 -3
2 1 53 8 112 8 59 16 101 18 94 3 -8 -1 -59 -8 -113z m-38 -49 c-3 -57 -1 -93
5 -98 21 -12 -19 -305 -40 -298 -22 7 -37 346 -17 377 7 10 10 -6 10 -55 0
-85 10 -175 19 -175 4 0 7 66 7 148 1 127 7 192 18 192 2 0 1 -41 -2 -91z
m-368 -49 c3 -14 -3 -7 -13 15 -11 22 -19 47 -19 55 0 17 22 -32 32 -70z m26
-65 c0 -5 -5 -3 -10 5 -5 8 -10 20 -10 25 0 6 5 3 10 -5 5 -8 10 -19 10 -25z
m248 -315 c-21 -29 -68 -47 -88 -35 -13 8 -14 245 0 245 5 0 11 -45 12 -102 2
-76 7 -103 17 -106 10 -3 13 2 9 21 -3 14 -2 43 2 64 l8 38 1 -35 c2 -44 11
-80 21 -80 4 0 5 67 2 148 -4 115 -2 154 9 173 12 21 15 7 21 -139 8 -157 7
-164 -14 -192z m-124 -60 c-12 -12 -14 1 -13 90 l2 105 12 -90 c10 -75 10 -92
-1 -105z m153 -162 c-3 -7 -5 -2 -5 12 0 14 2 19 5 13 2 -7 2 -19 0 -25z
m-381 -49 c4 -7 8 -62 9 -123 1 -61 12 -199 24 -306 12 -107 24 -230 28 -272
3 -46 11 -82 19 -89 21 -17 28 12 20 89 -20 212 -16 241 8 57 8 -60 17 -117
20 -125 5 -12 -19 -27 -100 -64 -112 -51 -123 -51 -124 2 0 12 -5 22 -11 22
-6 0 -9 -17 -7 -42 2 -38 0 -43 -20 -46 -20 -3 -22 1 -22 47 0 47 2 51 24 51
13 0 31 3 40 6 12 5 16 0 16 -20 0 -17 5 -26 15 -26 13 0 15 9 9 53 -4 28 -13
65 -21 81 -8 15 -12 39 -9 51 8 30 -2 55 -18 49 -8 -3 -25 26 -46 78 -43 108
-45 110 -94 106 l-41 -3 -3 64 c-2 36 2 69 7 74 8 8 11 -1 11 -28 0 -54 10
-85 25 -85 19 0 22 18 16 98 -5 60 -3 78 11 100 18 27 18 26 18 -69 0 -111 8
-161 24 -156 8 3 10 46 7 140 -2 86 0 137 6 137 6 0 13 -70 16 -172 6 -158 16
-240 31 -255 18 -18 22 24 12 122 -9 82 -10 315 -2 323 3 3 6 -17 6 -44 0 -27
5 -116 11 -199 9 -131 17 -191 48 -380 4 -26 12 -39 20 -37 7 1 19 -5 26 -14
19 -27 35 -9 24 29 -5 17 -12 118 -15 222 -3 105 -9 204 -14 220 -4 17 -11 91
-15 165 -3 74 -9 145 -12 158 -5 23 10 31 23 11z m-36 -244 c6 -121 13 -255
15 -297 3 -42 1 -79 -4 -82 -13 -9 -30 178 -31 346 0 86 -3 164 -6 172 -6 16
4 91 11 84 2 -2 9 -103 15 -223z m386 100 c-10 -74 -14 -88 -15 -52 -1 44 -12
60 -26 37 -4 -6 -11 -8 -16 -5 -16 10 -10 23 14 29 23 5 45 53 48 102 1 13 3
14 5 4 2 -8 -2 -60 -10 -115z m-305 26 c-8 -22 -9 -19 -10 24 0 42 2 46 10 26
6 -15 6 -34 0 -50z m-4 -78 c-3 -10 -5 -2 -5 17 0 19 2 27 5 18 2 -10 2 -26 0
-35z m293 -90 c0 -5 -8 -39 -17 -78 l-18 -70 -3 55 c-2 32 1 56 7 58 6 2 11
12 11 23 0 10 5 19 10 19 6 0 10 -3 10 -7z m-220 -96 c6 -32 9 -61 7 -64 -6
-6 -23 52 -32 112 -9 60 10 22 25 -48z m-53 11 c-3 -8 -6 -5 -6 6 -1 11 2 17
5 13 3 -3 4 -12 1 -19z m-367 -45 c7 -44 4 -54 -29 -113 l-36 -65 -3 99 c-1
55 1 103 6 108 5 5 10 -17 11 -54 2 -67 4 -74 20 -63 6 3 11 38 11 77 0 79 9
84 20 11z m532 2 c3 -13 1 -22 -3 -19 -9 5 -13 44 -5 44 2 0 6 -11 8 -25z
m-620 -181 c4 -4 3 -15 -3 -26 -9 -17 -18 -18 -83 -12 -48 4 -76 3 -80 -4 -3
-6 -2 -13 3 -17 6 -3 8 -12 4 -20 -3 -8 -2 -23 2 -32 9 -22 7 -201 -3 -263 -5
-30 -9 17 -12 145 -4 151 -2 195 9 214 12 22 15 23 26 8 16 -22 25 -12 26 32
l2 36 6 -39 c3 -22 12 -41 19 -44 9 -3 12 14 12 62 0 35 5 68 10 71 6 4 10
-16 10 -54 0 -63 6 -91 21 -91 5 0 10 46 11 103 l1 102 6 -82 c4 -45 10 -85
13 -89z m178 -80 c0 -7 -8 -10 -20 -7 -22 6 -24 12 -13 39 6 16 7 16 20 -2 7
-10 13 -23 13 -30z m-385 -162 c0 -97 3 -185 8 -196 7 -18 8 -18 27 -1 19 17
20 17 20 -1 0 -14 -13 -25 -46 -37 l-46 -17 5 23 c4 12 7 103 8 202 1 150 7
205 23 205 0 0 1 -80 1 -178z m805 128 c18 0 11 -17 -15 -34 -22 -15 -26 -15
-31 -2 -3 9 0 29 7 46 12 27 14 28 21 10 4 -11 12 -20 18 -20z m-875 -392
c-18 -13 -27 -9 -20 10 8 19 8 312 0 320 -3 3 1 12 8 20 10 12 13 -19 17 -164
3 -114 1 -182 -5 -186z m184 333 c-1 -9 -5 -29 -9 -46 l-8 -30 -1 30 c-1 17
-4 40 -7 53 -5 18 -3 21 10 16 9 -3 15 -14 15 -23z m-236 -176 c-4 -101 -3
-148 5 -158 9 -11 -4 -20 -71 -47 -45 -19 -91 -39 -102 -46 -11 -6 -30 -15
-43 -19 l-23 -7 4 99 c3 92 5 101 32 131 16 18 32 32 37 32 4 0 8 -43 8 -95 0
-52 4 -95 9 -95 11 0 23 96 20 165 -2 46 1 59 22 81 l24 26 6 -24 c4 -13 7
-64 8 -114 1 -68 5 -95 16 -104 21 -18 23 -6 28 156 3 125 8 164 23 164 2 0 1
-65 -3 -145z m523 23 c-13 -9 -13 -12 -7 52 l5 55 6 -50 c4 -31 3 -53 -4 -57z
m-83 -15 c12 -12 27 18 27 56 0 44 6 37 12 -15 l6 -41 -53 -17 c-28 -9 -54
-16 -57 -16 -2 0 -5 26 -6 58 l-1 57 12 -39 c19 -62 37 -57 38 11 l2 58 6 -52
c4 -28 10 -55 14 -60z m-96 -45 c-20 -13 -22 -9 -22 29 0 27 -4 38 -15 38 -18
0 -26 -51 -11 -69 8 -9 2 -17 -25 -29 -19 -9 -39 -17 -44 -17 -6 0 -10 29 -10
64 0 58 2 64 19 59 17 -4 17 -7 4 -33 -14 -30 -5 -70 17 -70 9 0 12 13 15 68
0 14 12 30 30 41 l30 18 12 -46 c8 -35 8 -48 0 -53z m-606 -118 l-7 -45 -6 35
c-3 19 -1 41 5 48 14 18 15 13 8 -38z m-51 -16 c0 -8 -5 -12 -10 -9 -6 4 -8
11 -5 16 9 14 15 11 15 -7z m-34 -80 c-5 -51 -4 -65 6 -62 7 3 15 15 19 29 4
13 7 19 8 12 1 -6 3 -18 6 -25 4 -9 -4 -19 -20 -26 -40 -19 -44 -15 -39 36 3
26 5 54 5 62 1 22 7 40 15 40 4 0 4 -30 0 -66z m76 -46 c-9 -9 -12 -1 -11 33
l1 44 11 -33 c7 -24 7 -36 -1 -44z m-128 6 c0 -63 -6 -67 -105 -92 -26 -6 -55
-15 -65 -18 -14 -5 -11 1 10 24 26 28 31 30 41 15 14 -19 30 -2 21 22 -3 8 -1
17 4 20 6 4 10 -1 10 -9 0 -21 10 -20 26 2 12 16 13 15 14 -7 0 -41 21 -9 24
35 1 32 11 64 19 64 1 0 2 -25 1 -56z"/>
<path d="M2486 4651 c-10 -16 -36 -169 -47 -276 -6 -66 -15 -105 -26 -117 -23
-26 -7 -36 26 -17 27 16 29 16 44 -10 8 -14 13 -38 10 -52 -8 -43 22 -86 79
-115 28 -14 59 -35 67 -46 22 -27 51 -14 51 23 0 16 -4 29 -10 29 -5 0 -10 5
-10 11 0 5 5 7 10 4 20 -12 8 7 -90 145 -55 77 -95 140 -91 140 5 0 47 -50 93
-111 107 -144 107 -144 113 -137 7 7 -114 183 -168 244 -21 24 -37 49 -35 55
2 6 38 -33 80 -88 75 -97 173 -201 182 -192 2 2 -29 45 -71 94 -111 133 -173
224 -173 254 1 23 8 19 71 -49 39 -41 100 -114 137 -162 37 -49 68 -84 70 -79
5 15 -103 159 -186 250 -82 89 -99 111 -83 111 5 0 56 -51 114 -112 58 -62
108 -110 111 -107 3 3 -47 65 -112 138 -64 73 -122 142 -128 152 -16 28 -21
32 -28 20z m77 -472 c65 -84 83 -114 53 -90 -19 16 -136 177 -136 187 0 10 4
5 83 -97z m-12 64 c13 -16 12 -17 -3 -4 -10 7 -18 15 -18 17 0 8 8 3 21 -13z
m59 -79 c23 -30 40 -57 37 -60 -2 -2 -23 23 -46 56 -53 76 -47 78 9 4z m-47
-57 c-8 -12 -33 20 -33 42 1 12 6 10 20 -8 11 -12 17 -28 13 -34z"/>
<path d="M2070 4535 c-36 -7 -83 -22 -105 -34 -21 -12 -45 -21 -52 -21 -31 0
-140 -66 -185 -112 -26 -27 -48 -53 -48 -57 0 -5 10 -21 22 -36 19 -25 25 -26
62 -20 23 4 58 7 80 6 83 -2 213 27 284 64 83 43 97 56 112 114 14 55 10 66
-39 91 -45 22 -41 22 -131 5z m10 -114 c0 -13 -49 -43 -59 -36 -5 2 -27 -2
-49 -9 -37 -13 -40 -13 -45 4 -4 15 4 22 37 34 46 16 116 21 116 7z"/>
<path d="M2380 4200 c-62 -27 -72 -29 -233 -29 -93 -1 -187 -5 -210 -11 -23
-5 -78 -11 -122 -14 -587 -31 -676 -40 -816 -82 -30 -9 -78 -16 -107 -16 -41
0 -55 -4 -59 -16 -4 -9 -15 -23 -25 -30 -10 -7 -18 -20 -18 -28 0 -20 37 -17
58 4 22 22 207 67 357 87 55 8 179 18 275 24 288 18 443 29 498 37 51 6 52 6
50 -17 -3 -24 -2 -24 110 -27 62 -1 112 1 112 6 0 12 -50 22 -111 22 -27 0
-49 5 -49 10 0 6 42 10 106 10 86 0 105 -3 101 -14 -3 -8 10 -22 34 -36 56
-31 93 -92 86 -142 -4 -28 -1 -41 9 -45 18 -7 60 20 74 48 15 28 5 36 -18 16
-27 -25 -32 -21 -32 22 0 45 -31 96 -78 127 l-32 22 43 22 c64 33 111 82 75
79 -7 -1 -42 -14 -78 -29z"/>
<path d="M2714 3949 c-3 -6 3 -23 15 -37 74 -93 181 -288 240 -439 11 -29 38
-88 60 -132 22 -43 68 -164 101 -268 34 -103 81 -235 105 -293 24 -58 51 -130
61 -160 9 -30 27 -77 40 -105 29 -67 32 -105 11 -135 -9 -13 -17 -42 -17 -64
l0 -39 -58 6 c-80 9 -202 -3 -202 -18 0 -7 6 -15 14 -18 22 -9 282 -11 295 -3
22 14 43 67 32 80 -6 7 -8 27 -5 44 6 28 9 31 33 25 14 -3 38 -12 53 -19 39
-20 46 -18 53 20 5 26 -4 61 -40 157 -26 68 -54 140 -61 159 -7 19 -25 67 -39
105 -15 39 -36 95 -47 125 -11 30 -26 62 -35 70 -34 33 -2 -77 89 -303 11 -27
18 -51 16 -53 -5 -5 -49 101 -88 211 -31 87 -53 125 -65 113 -7 -6 59 -180
125 -335 22 -50 40 -96 40 -102 0 -6 5 -11 11 -11 7 0 8 7 4 18 -13 31 -27 84
-23 88 2 2 24 -47 48 -109 24 -62 48 -119 54 -127 6 -8 -1 -5 -15 8 -14 12
-33 22 -43 22 -34 0 -55 20 -62 58 -17 104 -47 197 -88 281 -25 52 -46 99 -46
105 0 7 -9 30 -20 51 -12 22 -39 94 -61 160 -22 66 -72 182 -110 258 -38 76
-69 142 -69 148 0 19 -113 244 -158 314 -84 132 -129 175 -148 144z"/>
<path d="M744 3926 c-8 -22 3 -33 18 -18 9 9 9 15 0 24 -9 9 -13 7 -18 -6z"/>
<path d="M710 3866 c0 -27 71 -207 116 -294 24 -45 50 -110 59 -145 13 -53 65
-180 110 -267 7 -14 22 -59 34 -101 11 -41 31 -102 44 -135 13 -32 26 -74 30
-91 4 -18 29 -81 57 -140 41 -87 51 -115 47 -145 -6 -47 17 -60 32 -17 11 33
0 76 -44 164 -25 49 -93 238 -140 385 -31 101 -48 144 -84 217 -16 34 -37 89
-46 124 -9 34 -35 99 -57 143 -23 45 -63 133 -88 196 -43 104 -70 145 -70 106z"/>
<path d="M1255 3846 c-86 -39 -199 -176 -206 -246 -8 -84 1 -120 37 -160 23
-25 45 -40 59 -40 26 0 55 -24 55 -45 0 -23 50 -75 87 -90 44 -18 83 -19 148
-1 62 16 102 36 137 69 15 14 36 28 47 32 11 3 40 35 65 70 41 59 45 70 52
144 5 66 4 85 -10 106 -27 40 -70 57 -144 54 -66 -2 -66 -2 -74 27 -24 92
-145 131 -253 80z m63 -192 c3 -24 -42 -84 -64 -84 -9 0 -14 11 -14 32 0 58
70 105 78 52z m202 -132 c0 -24 -81 -93 -105 -90 -37 5 -28 36 26 90 49 49 52
50 65 33 8 -10 14 -25 14 -33z"/>
<path d="M2274 3748 c-58 -91 -146 -194 -206 -240 -20 -15 -47 -50 -61 -77
-14 -28 -46 -71 -72 -96 -25 -25 -52 -60 -60 -79 -8 -18 -21 -39 -30 -46 -9
-8 -28 -34 -41 -59 -32 -60 -82 -126 -116 -151 -14 -11 -39 -40 -55 -64 -32
-48 -66 -91 -125 -160 -21 -24 -38 -48 -38 -53 0 -6 -15 -30 -32 -54 -62 -85
-71 -114 -40 -142 15 -14 22 -14 62 0 48 16 96 55 106 85 6 21 61 103 103 157
16 20 36 52 45 71 18 40 55 89 144 190 34 39 62 76 62 84 0 7 23 43 50 79 28
36 50 70 50 75 0 5 29 39 64 75 35 37 84 95 110 129 25 35 52 70 59 78 8 8 22
37 32 63 10 27 31 67 47 89 36 49 34 82 -4 86 -22 3 -32 -4 -54 -40z m41 -15
c-10 -14 -27 -41 -38 -60 -30 -52 -33 -30 -3 32 16 33 32 55 42 55 15 0 15 -3
-1 -27z m-75 -102 c0 -6 -4 -13 -10 -16 -5 -3 -10 1 -10 9 0 9 5 16 10 16 6 0
10 -4 10 -9z m-14 -42 c3 -6 1 -15 -6 -19 -7 -4 -10 -17 -8 -28 8 -29 -33 -66
-62 -57 -19 6 -21 4 -15 -14 3 -12 2 -21 -3 -21 -9 0 -96 -98 -194 -219 -21
-25 -47 -64 -57 -86 -11 -22 -43 -65 -72 -95 -34 -36 -45 -45 -34 -25 10 17
26 39 36 51 11 11 19 24 19 28 0 5 16 30 35 56 19 26 44 69 55 94 14 30 35 56
64 76 27 18 52 47 66 75 12 25 35 57 52 72 16 16 34 38 39 51 4 12 15 22 22
22 8 0 20 11 27 25 15 27 25 31 36 14z m-510 -647 c-8 -16 -23 -35 -32 -43
-16 -12 -17 -12 -9 1 14 23 48 70 52 70 2 0 -3 -13 -11 -28z m-96 -148 c-17
-20 -37 -48 -43 -63 -6 -14 -21 -39 -33 -56 -12 -16 -24 -39 -28 -50 -6 -21
-64 -65 -84 -65 -17 0 0 31 44 80 19 20 34 42 34 47 0 5 21 32 48 60 26 28 56
63 66 79 12 16 21 23 24 16 2 -7 -10 -29 -28 -48z"/>
<path d="M3170 3431 c0 -51 115 -381 132 -381 6 0 8 6 6 13 -12 32 -80 248
-93 299 -15 52 -45 99 -45 69z"/>
<path d="M3110 3408 c0 -10 20 -66 44 -125 24 -59 55 -145 70 -190 15 -46 32
-83 37 -83 15 0 10 31 -17 105 -14 39 -39 111 -56 162 -30 89 -77 168 -78 131z"/>
<path d="M2071 3210 c-49 -5 -58 -10 -98 -55 -49 -56 -57 -76 -49 -111 12 -46
119 -85 152 -55 16 15 94 30 100 19 11 -18 -46 -85 -89 -104 -47 -20 -73 -38
-154 -106 -31 -27 -60 -48 -65 -48 -5 0 -20 -24 -33 -52 -28 -59 -33 -139 -11
-157 14 -12 117 -27 276 -41 52 -5 118 -14 145 -21 66 -17 120 -15 150 5 24
16 34 50 18 58 -5 2 -15 16 -23 32 -8 16 -22 32 -30 36 -39 20 -101 39 -157
51 -35 6 -63 15 -63 19 0 3 12 13 28 20 15 8 39 22 53 32 14 10 28 15 31 13 8
-9 98 87 98 104 0 10 10 37 21 61 17 35 20 56 16 103 -7 77 -49 162 -90 184
-34 18 -133 23 -226 13z"/>
<path d="M598 3143 c-26 -30 -35 -55 -58 -147 -23 -96 -20 -120 20 -176 12
-17 20 -40 18 -53 -3 -18 -8 -12 -27 30 -27 61 -48 73 -73 43 -29 -36 -31 -80
-8 -151 35 -105 83 -139 148 -105 25 13 82 77 82 91 0 3 21 49 46 102 53 113
63 158 54 241 -8 67 -38 119 -73 126 -80 17 -114 16 -129 -1z m68 -213 c-18
-44 -30 -22 -21 38 l7 47 14 -27 c12 -22 12 -31 0 -58z"/>
<path d="M2721 3094 c-68 -29 -196 -148 -225 -209 -34 -71 -46 -263 -21 -334
58 -165 266 -225 395 -114 34 30 100 141 100 169 0 4 6 15 13 23 55 64 66 258
21 341 -54 99 -196 161 -283 124z m101 -195 c19 -8 31 -22 38 -48 23 -84 6
-139 -58 -181 -74 -49 -121 -37 -141 35 -10 39 10 125 35 145 7 7 14 19 14 27
0 26 68 40 112 22z"/>
<path d="M3353 3011 c15 -74 193 -501 209 -501 15 0 9 31 -16 79 -23 45 -115
280 -152 390 -21 62 -51 85 -41 32z"/>
<path d="M3426 2941 c-4 -6 17 -68 47 -138 29 -70 66 -158 81 -195 41 -100 96
-178 96 -137 0 6 -13 39 -29 73 -16 33 -36 79 -45 101 -10 22 -21 48 -27 57
-5 10 -28 64 -50 120 -43 107 -62 138 -73 119z"/>
<path d="M790 2735 c-10 -11 -25 -34 -32 -50 -7 -17 -26 -50 -42 -75 -17 -25
-37 -72 -47 -105 -10 -33 -25 -79 -33 -103 -9 -24 -14 -56 -12 -70 2 -15 5
-30 5 -34 2 -14 46 -8 67 10 32 27 61 74 68 112 3 20 22 60 41 90 19 30 35 58
35 63 0 5 9 22 20 37 29 41 37 112 15 130 -26 21 -62 19 -85 -5z"/>
<path d="M1284 2485 c-7 -17 2 -45 14 -45 4 0 17 6 28 14 19 15 19 15 -1 30
-25 20 -34 20 -41 1z"/>
<path d="M1367 2493 c-12 -11 -8 -40 7 -53 8 -6 13 -17 10 -24 -7 -20 36 -27
73 -14 26 9 53 9 120 -1 49 -7 117 -15 153 -17 66 -5 171 -23 290 -51 130 -30
308 -37 474 -18 157 18 166 20 166 36 0 7 -66 8 -187 5 -201 -5 -278 2 -551
48 -82 14 -176 26 -208 26 -38 0 -63 5 -75 16 -11 10 -23 13 -33 7 -8 -4 -48
-6 -90 -3 -56 4 -82 11 -105 28 -33 24 -35 25 -44 15z"/>
<path d="M1130 2387 c0 -9 -10 -19 -22 -23 -32 -10 -128 -73 -128 -84 0 -19
25 -10 100 35 41 25 80 45 85 45 6 0 18 -20 28 -45 19 -45 30 -54 42 -35 8 12
-15 87 -30 100 -7 5 -26 13 -43 16 -25 5 -32 3 -32 -9z"/>
<path d="M1302 2357 c-22 -22 -30 -39 -26 -50 9 -24 20 -21 44 14 13 17 28 28
36 25 19 -7 28 12 14 29 -19 22 -33 18 -68 -18z"/>
<path d="M3476 2332 c-6 -10 42 -92 54 -92 18 0 20 20 4 59 -15 39 -44 55 -58
33z"/>
<path d="M2718 2323 c-30 -8 -20 -23 15 -23 18 0 38 -5 43 -10 12 -12 144 -20
144 -10 0 4 -18 10 -41 14 -23 4 -54 13 -70 21 -27 15 -57 17 -91 8z"/>
<path d="M1280 2234 c-14 -35 -12 -92 4 -134 8 -19 27 -69 44 -110 16 -41 32
-93 36 -115 4 -22 25 -69 46 -105 41 -69 120 -249 120 -275 0 -8 23 -77 51
-152 77 -209 173 -392 194 -371 7 7 -42 145 -67 185 -23 39 -91 216 -154 403
-50 148 -65 181 -100 223 -13 15 -29 47 -35 70 -17 63 -28 94 -66 180 -29 65
-34 87 -31 140 2 61 -4 87 -23 87 -5 0 -14 -12 -19 -26z"/>
<path d="M3470 2216 c0 -32 18 -43 37 -23 20 20 10 47 -17 47 -15 0 -20 -7
-20 -24z"/>
<path d="M760 2160 c0 -5 4 -10 9 -10 6 0 13 5 16 10 3 6 -1 10 -9 10 -9 0
-16 -4 -16 -10z"/>
<path d="M3447 2142 c-19 -20 -22 -42 -8 -42 11 0 41 39 41 52 0 14 -16 9 -33
-10z"/>
<path d="M665 2136 c-22 -8 -87 -36 -145 -64 -79 -37 -101 -51 -87 -57 11 -5
25 -1 37 10 11 10 26 15 35 11 13 -5 86 27 145 63 8 6 27 12 43 16 15 3 27 12
27 20 0 18 -3 18 -55 1z"/>
<path d="M2018 1950 c-45 -24 -48 -29 -56 -88 l-7 -47 -68 -6 c-60 -5 -72 -9
-92 -35 -45 -54 -25 -139 35 -148 21 -3 25 -8 23 -32 -6 -112 -7 -212 0 -231
10 -26 69 -63 103 -63 32 0 112 41 194 98 105 74 232 183 249 214 9 16 24 39
34 50 22 27 22 32 -5 62 -18 20 -50 32 -152 56 -170 41 -169 40 -150 86 16 38
12 64 -12 89 -20 20 -51 18 -96 -5z m105 -317 l39 -6 -68 -68 c-38 -38 -72
-69 -75 -69 -7 0 -5 15 13 90 16 61 22 65 91 53z"/>
<path d="M1160 1927 c-34 -17 -48 -69 -26 -101 24 -37 69 -58 99 -47 35 13 39
24 31 77 -5 37 -13 50 -38 65 -37 22 -34 22 -66 6z"/>
<path d="M2602 1817 c-41 -44 -103 -198 -128 -317 -39 -188 -31 -234 39 -227
47 5 81 36 96 90 7 23 16 51 21 62 9 20 34 112 65 238 19 73 14 130 -12 160
-22 24 -55 21 -81 -6z"/>
<path d="M875 1743 c22 -119 151 -271 265 -313 19 -7 53 -19 74 -27 22 -8 61
-16 87 -19 42 -5 52 -2 74 20 22 22 25 33 25 99 0 64 -4 79 -27 114 -65 93
-89 113 -145 123 -52 10 -99 -11 -147 -65 -17 -20 -35 -34 -40 -31 -5 3 -13
25 -19 49 -14 55 -55 87 -113 87 l-41 0 7 -37z m356 -166 c25 -20 30 -46 10
-56 -25 -14 -61 13 -61 45 0 27 24 32 51 11z"/>
<path d="M2726 1159 c-8 -40 -8 -117 0 -146 14 -51 24 -17 24 77 0 98 -11 131
-24 69z"/>
<path d="M2626 1094 c-10 -25 -7 -164 3 -164 13 0 27 106 22 168 -1 17 -18 15
-25 -4z"/>
</g>
</svg>
